<svg width="130" height="70" viewBox="0 0 130 70" fill="none" xmlns="http://www.w3.org/2000/svg">
<g clip-path="url(#clip0_295_714)">
<path d="M106.851 13.6843L130.02 0H48.9532L0 28.9472H23.149L0 42.6315H23.149L0 56.3157H23.149L0 70H81.0312L129.984 41.0528H106.851L130.02 27.3685H106.851L130.02 13.6843H106.851ZM7.88733 26.8412L49.7364 2.10605H122.113L102.531 13.6843H48.9532L26.7128 26.8412H7.88733ZM98.9637 43.1555L80.2832 54.2097H31.0363L49.7364 43.1555H98.9637ZM31.0363 40.5254L49.7364 29.4746H98.9637L80.2832 40.5254H31.0363ZM31.0363 26.8412L49.7364 15.7869H98.9637L80.2832 26.8412H31.0363ZM7.88733 40.5254L27.4686 28.9472H46.2901L26.7088 40.5254H7.88733ZM7.88733 54.2097L27.4686 42.6315H46.2901L26.7088 54.2097H7.88733ZM122.113 43.1555L80.2832 67.894H7.88733L27.4686 56.3157H81.0312L103.287 43.1555H122.113ZM122.113 29.4746L102.531 41.0528H83.7021L103.283 29.4746H122.113ZM83.7021 27.3685L103.283 15.7903H122.109L102.527 27.3685H83.7021Z" fill="#0B367D"/>
</g>
<defs>
<clipPath id="clip0_295_714">
<rect width="130" height="70" fill="white"/>
</clipPath>
</defs>
</svg>
