<svg width="212" height="40" viewBox="0 0 212 40" fill="none" xmlns="http://www.w3.org/2000/svg">
<path d="M54.5352 24.1966L59.0037 8.48698H61.1685L59.916 14.5946L55.1073 31H52.958L54.5352 24.1966ZM49.9119 8.48698L53.4683 23.8874L54.5352 31H52.4014L46.9432 8.48698H49.9119ZM66.9513 23.8719L70.4303 8.48698H73.4146L67.9718 31H65.8381L66.9513 23.8719ZM61.4932 8.48698L65.8381 24.1966L67.4152 31H65.266L60.6273 14.5946L59.3594 8.48698H61.4932ZM90.076 28.5724V31H78.1547V28.5724H90.076ZM78.7577 8.48698V31H75.7735V8.48698H78.7577ZM88.4989 18.1663V20.5939H78.1547V18.1663H88.4989ZM89.9214 8.48698V10.93H78.1547V8.48698H89.9214ZM100.846 20.4702H95.1409L95.1099 18.0736H100.29C101.145 18.0736 101.893 17.9293 102.532 17.6406C103.171 17.352 103.666 16.9397 104.016 16.4036C104.377 15.8573 104.557 15.2079 104.557 14.4554C104.557 13.6308 104.398 12.9607 104.078 12.4453C103.769 11.9196 103.289 11.5382 102.64 11.3011C102.001 11.0537 101.187 10.93 100.197 10.93H95.8057V31H92.8215V8.48698H100.197C101.352 8.48698 102.382 8.60552 103.289 8.84261C104.197 9.06939 104.965 9.43017 105.593 9.92497C106.232 10.4095 106.717 11.0279 107.047 11.7804C107.377 12.5329 107.542 13.4349 107.542 14.4863C107.542 15.4141 107.304 16.2542 106.83 17.0067C106.356 17.7489 105.696 18.357 104.851 18.8312C104.016 19.3054 103.037 19.6095 101.913 19.7435L100.846 20.4702ZM100.707 31H93.9657L95.6511 28.5724H100.707C101.656 28.5724 102.46 28.4075 103.119 28.0776C103.789 27.7478 104.3 27.2839 104.65 26.686C105.001 26.0779 105.176 25.3614 105.176 24.5368C105.176 23.7018 105.026 22.9803 104.727 22.3721C104.429 21.7639 103.959 21.2949 103.32 20.965C102.681 20.6351 101.857 20.4702 100.846 20.4702H96.5943L96.6252 18.0736H102.439L103.073 18.9395C104.155 19.0322 105.073 19.3415 105.825 19.8672C106.578 20.3826 107.15 21.0423 107.542 21.8464C107.944 22.6504 108.145 23.5369 108.145 24.5059C108.145 25.9078 107.835 27.0932 107.217 28.0622C106.609 29.0208 105.748 29.7527 104.635 30.2578C103.521 30.7526 102.212 31 100.707 31ZM126.809 22.1711H120.795V19.7435H126.809C127.974 19.7435 128.917 19.5579 129.639 19.1868C130.361 18.8158 130.886 18.3003 131.216 17.6406C131.556 16.9809 131.726 16.2284 131.726 15.3831C131.726 14.61 131.556 13.8833 131.216 13.203C130.886 12.5226 130.361 11.9763 129.639 11.564C128.917 11.1413 127.974 10.93 126.809 10.93H121.49V31H118.506V8.48698H126.809C128.51 8.48698 129.948 8.78076 131.123 9.36833C132.298 9.95589 133.19 10.7702 133.798 11.8114C134.406 12.8422 134.711 14.0225 134.711 15.3522C134.711 16.7954 134.406 18.0272 133.798 19.0477C133.19 20.0682 132.298 20.8465 131.123 21.3825C129.948 21.9082 128.51 22.1711 126.809 22.1711ZM151.836 28.5724V31H139.915V28.5724H151.836ZM140.518 8.48698V31H137.533V8.48698H140.518ZM150.259 18.1663V20.5939H139.915V18.1663H150.259ZM151.681 8.48698V10.93H139.915V8.48698H151.681ZM171.219 19.7899V28.0312C170.94 28.4436 170.497 28.9074 169.889 29.4229C169.281 29.928 168.441 30.3712 167.369 30.7526C166.307 31.1237 164.936 31.3092 163.256 31.3092C161.885 31.3092 160.622 31.0722 159.467 30.598C158.323 30.1135 157.329 29.4125 156.483 28.4951C155.648 27.5674 154.999 26.4438 154.535 25.1243C154.081 23.7946 153.855 22.2896 153.855 20.6094V18.8621C153.855 17.1819 154.051 15.6821 154.442 14.3626C154.844 13.0432 155.432 11.9247 156.205 11.0073C156.978 10.0796 157.926 9.37863 159.05 8.90446C160.174 8.41998 161.462 8.17773 162.916 8.17773C164.637 8.17773 166.075 8.47667 167.23 9.07454C168.394 9.66211 169.301 10.4765 169.951 11.5176C170.611 12.5587 171.033 13.7441 171.219 15.0739H168.235C168.101 14.2595 167.833 13.5174 167.431 12.8473C167.039 12.1773 166.477 11.6413 165.745 11.2393C165.013 10.8269 164.07 10.6208 162.916 10.6208C161.874 10.6208 160.972 10.8115 160.21 11.1929C159.447 11.5743 158.818 12.1206 158.323 12.8319C157.828 13.5431 157.457 14.4039 157.21 15.4141C156.973 16.4243 156.854 17.5633 156.854 18.8312V20.6094C156.854 21.9082 157.004 23.0679 157.303 24.0884C157.612 25.1089 158.05 25.9799 158.617 26.7015C159.184 27.4128 159.859 27.9539 160.643 28.325C161.436 28.6961 162.313 28.8817 163.271 28.8817C164.333 28.8817 165.194 28.7941 165.853 28.6188C166.513 28.4333 167.029 28.2168 167.4 27.9694C167.771 27.7117 168.054 27.4695 168.25 27.2427V22.202H163.039V19.7899H171.219ZM183.551 10.4816L176.098 31H173.052L181.634 8.48698H183.597L183.551 10.4816ZM189.798 31L182.329 10.4816L182.283 8.48698H184.247L192.859 31H189.798ZM189.411 22.6659V25.1089H176.763V22.6659H189.411ZM206.923 25.3099C206.923 24.7842 206.84 24.3203 206.676 23.9183C206.521 23.506 206.243 23.1349 205.841 22.805C205.449 22.4752 204.903 22.1608 204.202 21.8618C203.511 21.5629 202.635 21.2588 201.573 20.9495C200.46 20.6197 199.455 20.2537 198.558 19.8517C197.661 19.4394 196.893 18.9704 196.254 18.4447C195.615 17.9189 195.125 17.3159 194.785 16.6356C194.445 15.9552 194.275 15.177 194.275 14.3008C194.275 13.4246 194.455 12.6154 194.816 11.8732C195.177 11.131 195.692 10.4868 196.362 9.94043C197.043 9.38379 197.852 8.95085 198.79 8.6416C199.728 8.33236 200.774 8.17773 201.929 8.17773C203.619 8.17773 205.052 8.50244 206.227 9.15185C207.413 9.79096 208.315 10.6311 208.933 11.6722C209.552 12.703 209.861 13.806 209.861 14.9811H206.892C206.892 14.1359 206.712 13.3885 206.351 12.7391C205.99 12.0794 205.444 11.564 204.712 11.1929C203.98 10.8115 203.052 10.6208 201.929 10.6208C200.867 10.6208 199.991 10.7805 199.3 11.1001C198.609 11.4196 198.094 11.8526 197.754 12.3989C197.424 12.9453 197.259 13.5689 197.259 14.2699C197.259 14.744 197.357 15.177 197.553 15.5687C197.759 15.9501 198.073 16.3057 198.496 16.6356C198.929 16.9654 199.475 17.2695 200.135 17.5479C200.805 17.8262 201.604 18.0942 202.532 18.3519C203.81 18.7127 204.913 19.1147 205.841 19.5579C206.768 20.0012 207.531 20.5011 208.129 21.0578C208.737 21.6041 209.186 22.2278 209.474 22.9287C209.773 23.6194 209.923 24.4028 209.923 25.279C209.923 26.1964 209.737 27.0262 209.366 27.7684C208.995 28.5106 208.464 29.1445 207.773 29.6702C207.083 30.196 206.253 30.6031 205.284 30.8918C204.325 31.1701 203.253 31.3092 202.068 31.3092C201.027 31.3092 200.001 31.1649 198.991 30.8763C197.991 30.5877 197.079 30.1547 196.254 29.5775C195.44 29.0002 194.785 28.289 194.29 27.4437C193.806 26.5881 193.564 25.5985 193.564 24.4749H196.532C196.532 25.248 196.682 25.9129 196.981 26.4696C197.28 27.0159 197.687 27.4695 198.202 27.8302C198.728 28.191 199.321 28.459 199.98 28.6343C200.65 28.7992 201.346 28.8817 202.068 28.8817C203.109 28.8817 203.99 28.7374 204.712 28.4487C205.433 28.1601 205.98 27.7478 206.351 27.2118C206.732 26.6757 206.923 26.0418 206.923 25.3099Z" fill="#EDF0F7"/>
<path d="M10.0109 23.4202C9.94333 24.5073 10.1215 25.5639 10.5179 26.5261C11.0955 27.9238 12.1401 29.1326 13.5781 29.9548L16.6352 31.7057C17.1298 31.9858 17.2988 32.6162 17.0162 33.1034L16.9086 33.2861C16.7673 33.5327 16.5553 33.6941 16.2818 33.7672C16.0053 33.8403 15.7411 33.8068 15.4953 33.6636L12.4412 31.9158C10.5455 30.8318 9.16906 29.2362 8.40401 27.3878C7.73729 25.7679 7.5345 23.9652 7.86633 22.1504C6.34238 21.0968 5.21785 19.6809 4.5542 18.0762C3.8844 16.4562 3.68469 14.6536 4.01344 12.8357C2.50486 11.7882 1.37726 10.3753 0.707458 8.77362C-0.0668059 6.92529 -0.226577 4.83336 0.332614 2.76579L0.347976 2.70794L0.735108 1.27982L2.02862 2.01976L13.9191 8.82539C14.9054 5.88694 16.9117 3.59404 19.468 2.08066C22.5558 0.250604 26.4517 -0.434528 30.3046 0.274963L31.5244 0.500295L31.2049 1.68176L30.7225 3.46006C32.1665 4.66893 33.5246 6.33152 34.8089 7.89666C35.6139 8.88325 36.3881 9.8272 37.1009 10.555C38.1364 11.6116 38.1917 12.991 37.7001 14.1664C37.5188 14.6018 37.2515 15.0129 36.9289 15.3661C36.5971 15.7285 36.2069 16.0299 35.7859 16.2339C34.7812 16.7181 33.626 16.7029 32.609 15.8198C31.4998 14.8545 29.9667 14.4922 28.5564 14.1542C27.352 13.8679 26.2152 13.5969 25.2811 13.0184C24.9923 12.8387 24.8203 12.5586 24.7987 12.2175C24.7742 11.8795 24.9063 11.5781 25.1705 11.3619L25.3456 11.2157C25.6898 10.9325 26.1537 10.896 26.5378 11.1213C27.1799 11.502 28.1017 11.7212 29.0849 11.9526C30.7624 12.3546 32.5844 12.787 34.1145 14.1176C34.3234 14.2973 34.5662 14.2973 34.7843 14.1938C34.9502 14.1115 35.1038 13.9928 35.236 13.8466C35.3804 13.6913 35.5002 13.5025 35.5862 13.2955C35.7552 12.8905 35.7613 12.4398 35.4633 12.1353C34.6829 11.3406 33.8748 10.354 33.0361 9.32477C31.6596 7.64696 30.1909 5.8504 28.7469 4.79987L28.117 4.34007L28.3167 3.59404L28.6578 2.33035C25.7697 2.05326 22.9338 2.66531 20.6417 4.02339C18.4111 5.34188 16.6936 7.37596 15.9469 9.98554L25.6191 15.5183V15.5214C27.9142 16.8338 29.389 18.7917 30.0496 21.0633C30.4736 22.5219 30.5535 24.1114 30.2923 25.7405C30.0343 27.3391 29.4443 28.9743 28.5226 30.5547C26.2889 34.3914 22.0796 37.951 15.9131 39.9455C15.6366 40.0369 15.3662 40.0125 15.1082 39.8785C14.8501 39.7415 14.678 39.5314 14.5981 39.2513L14.5367 39.0442C14.3861 38.5113 14.6842 37.9571 15.2126 37.7866C20.7892 35.9839 24.5652 32.8141 26.5439 29.4189C27.3243 28.0791 27.8221 26.7119 28.0341 25.3873C28.243 24.0901 28.1816 22.8325 27.8467 21.6845C27.3489 19.9641 26.2244 18.4781 24.4761 17.4793H24.4731L2.30207 4.79378C2.23448 5.88085 2.41575 6.94357 2.82132 7.91188C3.40202 9.30955 4.44973 10.5154 5.87536 11.3314H5.87844L24.3625 21.9068C24.6083 22.0469 24.7711 22.257 24.8448 22.531C24.9186 22.802 24.8817 23.0639 24.7404 23.3106L24.6298 23.4963C24.344 23.9835 23.7111 24.151 23.2164 23.8708L6.16111 14.1085C6.09351 15.1956 6.26864 16.2522 6.66806 17.2144C7.24569 18.6121 8.28726 19.821 9.72518 20.6431H9.73132L22.0366 27.6863C22.2855 27.8263 22.4452 28.0364 22.519 28.3075C22.5927 28.5815 22.5589 28.8434 22.4145 29.087L22.307 29.2727C22.0212 29.763 21.3852 29.9304 20.8936 29.6473L10.0109 23.4202Z" fill="#EDF0F7"/>
</svg>
