<svg width="74" height="50" viewBox="0 0 74 50" fill="none" xmlns="http://www.w3.org/2000/svg">
<rect width="74" height="50" rx="10" fill="#103D89"/>
<path d="M44.5152 19.6784L41.2988 23.517M29.4462 23.7358L32.7957 19.7069M38.6694 23.5211L35.4249 19.7023M30.0729 25.1553C30.0729 26.2246 29.2054 27.0921 28.136 27.0921C27.0667 27.0921 26.1992 26.2246 26.1992 25.1553C26.1992 24.0846 27.0667 23.2184 28.136 23.2184C29.2054 23.2184 30.0729 24.0846 30.0729 25.1553ZM38.0495 24.934C38.0495 23.8635 38.9169 22.9972 39.9863 22.9972C41.0557 22.9972 41.9232 23.8635 41.9232 24.934C41.9232 26.0046 41.0557 26.8709 39.9863 26.8709C38.9204 26.8756 38.0541 26.0151 38.0495 24.9492V24.934ZM36.0447 18.2884C36.0447 19.359 35.1773 20.2252 34.1079 20.2252C33.0373 20.2252 32.1711 19.359 32.1711 18.2884C32.1711 17.219 33.0373 16.3516 34.1079 16.3516C35.1773 16.3516 36.0447 17.219 36.0447 18.2884ZM47.7992 18.2884C47.7992 19.359 46.9317 20.2252 45.8624 20.2252C44.7918 20.2252 43.9256 19.359 43.9256 18.2884C43.9256 17.219 44.7918 16.3516 45.8624 16.3516C46.9317 16.3516 47.7992 17.219 47.7992 18.2884Z" stroke="white" stroke-width="2" stroke-linecap="round" stroke-linejoin="round"/>
<path opacity="0.4" d="M39.9856 31.1917V33.6503M45.8618 26.7065V33.6506M34.1073 26.7065V33.6506M28.1377 31.4128V33.6509" stroke="white" stroke-width="2" stroke-linecap="round" stroke-linejoin="round"/>
</svg>
