<svg width="74" height="50" viewBox="0 0 74 50" fill="none" xmlns="http://www.w3.org/2000/svg">
<rect width="74" height="50" rx="10" fill="#103D89"/>
<path opacity="0.4" fill-rule="evenodd" clip-rule="evenodd" d="M35.3484 28.5216C34.1938 28.5216 33.4746 27.7067 33.4746 26.5555V23.4442C33.4746 22.2895 34.1984 21.4746 35.3484 21.4746H38.6513C39.8048 21.4746 40.5216 22.2895 40.5216 23.4442V26.5555C40.5216 27.7067 39.8048 28.5216 38.6513 28.5216H35.3484Z" stroke="white" stroke-width="2" stroke-linecap="round" stroke-linejoin="round"/>
<path d="M28.6257 28.7C28.6257 31.4335 30.3363 33.3693 33.0779 33.3693H40.9232C43.666 33.3693 45.3672 31.4335 45.3672 28.7V21.3066C45.3672 18.565 43.666 16.6279 40.9232 16.6279H33.0779C30.3445 16.6279 28.6257 18.565 28.6257 21.3066V28.7Z" stroke="white" stroke-width="2" stroke-linecap="round" stroke-linejoin="round"/>
<path opacity="0.4" d="M34.1362 35.7967V33.3716M39.8649 35.7967V33.3716" stroke="white" stroke-width="2" stroke-linecap="round" stroke-linejoin="round"/>
<path opacity="0.4" d="M28.6244 22.1411H26.1992M28.6244 27.8607H26.1992" stroke="white" stroke-width="2" stroke-linecap="round" stroke-linejoin="round"/>
<path opacity="0.4" d="M34.1362 16.6293V14.2041M39.8649 16.6293V14.2041" stroke="white" stroke-width="2" stroke-linecap="round" stroke-linejoin="round"/>
<path opacity="0.4" d="M47.7988 22.1411H45.3643M47.7988 27.8607H45.3643" stroke="white" stroke-width="2" stroke-linecap="round" stroke-linejoin="round"/>
</svg>
