<svg width="74" height="50" viewBox="0 0 74 50" fill="none" xmlns="http://www.w3.org/2000/svg">
<rect width="74" height="50" rx="10" fill="#103D89"/>
<path d="M31.7217 14.2002H41.8433C45.3811 14.2002 47.582 16.6976 47.582 20.2319V29.7685C47.582 33.3028 45.3811 35.8002 41.8421 35.8002H31.7217C28.184 35.8002 25.9819 33.3028 25.9819 29.7685V20.2319C25.9819 16.6976 28.1945 14.2002 31.7217 14.2002Z" stroke="white" stroke-width="2" stroke-linecap="round" stroke-linejoin="round"/>
<path d="M31.1058 30.734C32.3224 31.9506 34.2932 31.9506 35.5099 30.734C36.7265 29.5175 36.7265 27.5466 35.5099 26.3299C34.2932 25.1133 32.3224 25.1133 31.1058 26.3299C29.8892 27.5466 29.8892 29.5175 31.1058 30.734Z" stroke="white" stroke-width="2" stroke-linecap="round" stroke-linejoin="round"/>
<path opacity="0.4" d="M35.5113 30.7335L33.3086 28.5315V25.4175" stroke="white" stroke-width="2" stroke-linecap="round" stroke-linejoin="round"/>
<path d="M39.5342 26.7983H43.3708M39.5342 30.1939H42.4811" stroke="white" stroke-width="2" stroke-linecap="round" stroke-linejoin="round"/>
<path opacity="0.4" d="M47.5821 21.9893H25.9821" stroke="white" stroke-width="2" stroke-linecap="round" stroke-linejoin="round"/>
<path opacity="0.4" d="M29.9962 18.4595H29.9297M32.979 18.4595H32.9125M35.9629 18.4595H35.8964" stroke="white" stroke-width="2" stroke-linecap="round" stroke-linejoin="round"/>
</svg>
