<svg width="40" height="40" viewBox="0 0 40 40" fill="none" xmlns="http://www.w3.org/2000/svg">
<path d="M25.0163 14.9497C24.4496 14.3814 23.5329 14.3814 22.9496 14.9497L19.9996 17.9147L17.0329 14.9497C16.4496 14.3814 15.5329 14.3814 14.9663 14.9497C14.3996 15.5164 14.3996 16.4497 14.9663 17.0147L17.9329 19.983L14.9663 22.933C14.3996 23.5164 14.3996 24.433 14.9663 24.998C15.2496 25.2814 15.6329 25.433 15.9996 25.433C16.3829 25.433 16.7496 25.2814 17.0329 24.998L19.9996 22.0497L22.9663 24.998C23.2496 25.2997 23.6163 25.433 23.9829 25.433C24.3663 25.433 24.7329 25.2814 25.0163 24.998C25.5829 24.433 25.5829 23.5164 25.0163 22.9497L22.0496 19.983L25.0163 17.0147C25.5829 16.4497 25.5829 15.5164 25.0163 14.9497Z" fill="#103D89"/>
<path d="M25.0163 14.9497C24.4496 14.3814 23.5329 14.3814 22.9496 14.9497L19.9996 17.9147L17.0329 14.9497C16.4496 14.3814 15.5329 14.3814 14.9663 14.9497C14.3996 15.5164 14.3996 16.4497 14.9663 17.0147L17.9329 19.983L14.9663 22.933C14.3996 23.5164 14.3996 24.433 14.9663 24.998C15.2496 25.2814 15.6329 25.433 15.9996 25.433C16.3829 25.433 16.7496 25.2814 17.0329 24.998L19.9996 22.0497L22.9663 24.998C23.2496 25.2997 23.6163 25.433 23.9829 25.433C24.3663 25.433 24.7329 25.2814 25.0163 24.998C25.5829 24.433 25.5829 23.5164 25.0163 22.9497L22.0496 19.983L25.0163 17.0147C25.5829 16.4497 25.5829 15.5164 25.0163 14.9497Z" fill="#103D89"/>
<path d="M27.233 4.57812C29.7543 4.57812 31.7732 5.45614 33.1646 6.91247C34.5609 8.37386 35.4163 10.5142 35.4163 13.1948V26.8131C35.4163 29.4844 34.5614 31.6202 33.1652 33.0794C31.7738 34.5337 29.7545 35.4115 27.233 35.4115H12.783C10.2613 35.4115 8.23724 34.5335 6.84134 33.0782C5.44111 31.6185 4.58301 29.4829 4.58301 26.8131V13.1948C4.58301 10.5158 5.44168 8.37554 6.84197 6.9136C8.23778 5.45635 10.2615 4.57812 12.783 4.57812H27.233Z" stroke="#103D89" stroke-width="2.5"/>
</svg>
