<svg width="120" height="120" viewBox="0 0 120 120" fill="none" xmlns="http://www.w3.org/2000/svg">
<mask id="path-1-inside-1_295_726" fill="white">
<path d="M74.0838 6.83378C74.7909 4.16443 73.2019 1.4053 70.4829 0.922819C60.1475 -0.911226 49.48 -0.00616091 39.5565 3.59023C28.0613 7.75619 18.1133 15.3346 11.0444 25.3107C3.97544 35.2868 0.123001 47.1845 0.00289154 59.4106C-0.100792 69.9652 2.58133 80.3297 7.73759 89.4728C9.09406 91.8781 12.2239 92.4627 14.508 90.9108L31.0505 79.6705C33.3346 78.1185 33.8844 75.0201 32.7329 72.5102C30.8992 68.5135 29.9579 64.143 30.0014 59.7053C30.0615 53.5922 31.9877 47.6434 35.5222 42.6553C39.0567 37.6673 44.0307 33.8781 49.7782 31.7951C53.9506 30.283 58.386 29.7224 62.7646 30.1276C65.5143 30.3821 68.2553 28.8363 68.9624 26.167L74.0838 6.83378Z"/>
</mask>
<path d="M74.0838 6.83378C74.7909 4.16443 73.2019 1.4053 70.4829 0.922819C60.1475 -0.911226 49.48 -0.00616091 39.5565 3.59023C28.0613 7.75619 18.1133 15.3346 11.0444 25.3107C3.97544 35.2868 0.123001 47.1845 0.00289154 59.4106C-0.100792 69.9652 2.58133 80.3297 7.73759 89.4728C9.09406 91.8781 12.2239 92.4627 14.508 90.9108L31.0505 79.6705C33.3346 78.1185 33.8844 75.0201 32.7329 72.5102C30.8992 68.5135 29.9579 64.143 30.0014 59.7053C30.0615 53.5922 31.9877 47.6434 35.5222 42.6553C39.0567 37.6673 44.0307 33.8781 49.7782 31.7951C53.9506 30.283 58.386 29.7224 62.7646 30.1276C65.5143 30.3821 68.2553 28.8363 68.9624 26.167L74.0838 6.83378Z" stroke="white" stroke-opacity="0.6" stroke-width="4" mask="url(#path-1-inside-1_295_726)"/>
<mask id="path-2-inside-2_295_726" fill="white">
<path d="M5 60C2.23858 60 -0.0216522 62.2426 0.208191 64.9944C1.05228 75.1003 4.44756 84.857 10.1118 93.3342C16.7047 103.201 26.0754 110.892 37.039 115.433C48.0026 119.974 60.0666 121.162 71.7054 118.847C83.3443 116.532 94.0353 110.818 102.426 102.426C110.818 94.0353 116.532 83.3443 118.847 71.7054C121.162 60.0666 119.974 48.0026 115.433 37.039C110.892 26.0754 103.201 16.7047 93.3342 10.1118C84.857 4.44755 75.1003 1.05227 64.9944 0.208193C62.2426 -0.0216508 60 2.23858 60 5V25C60 27.7614 62.2538 29.9576 64.977 30.4157C69.1393 31.116 73.1264 32.6901 76.6671 35.0559C81.6006 38.3524 85.4458 43.0377 87.7164 48.5195C89.987 54.0013 90.5811 60.0333 89.4236 65.8527C88.266 71.6721 85.4088 77.0176 81.2132 81.2132C77.0176 85.4088 71.6721 88.266 65.8527 89.4236C60.0333 90.5811 54.0013 89.987 48.5195 87.7164C43.0377 85.4458 38.3524 81.6006 35.0559 76.6671C32.6901 73.1264 31.116 69.1393 30.4157 64.977C29.9576 62.2538 27.7614 60 25 60H5Z"/>
</mask>
<path d="M5 60C2.23858 60 -0.0216522 62.2426 0.208191 64.9944C1.05228 75.1003 4.44756 84.857 10.1118 93.3342C16.7047 103.201 26.0754 110.892 37.039 115.433C48.0026 119.974 60.0666 121.162 71.7054 118.847C83.3443 116.532 94.0353 110.818 102.426 102.426C110.818 94.0353 116.532 83.3443 118.847 71.7054C121.162 60.0666 119.974 48.0026 115.433 37.039C110.892 26.0754 103.201 16.7047 93.3342 10.1118C84.857 4.44755 75.1003 1.05227 64.9944 0.208193C62.2426 -0.0216508 60 2.23858 60 5V25C60 27.7614 62.2538 29.9576 64.977 30.4157C69.1393 31.116 73.1264 32.6901 76.6671 35.0559C81.6006 38.3524 85.4458 43.0377 87.7164 48.5195C89.987 54.0013 90.5811 60.0333 89.4236 65.8527C88.266 71.6721 85.4088 77.0176 81.2132 81.2132C77.0176 85.4088 71.6721 88.266 65.8527 89.4236C60.0333 90.5811 54.0013 89.987 48.5195 87.7164C43.0377 85.4458 38.3524 81.6006 35.0559 76.6671C32.6901 73.1264 31.116 69.1393 30.4157 64.977C29.9576 62.2538 27.7614 60 25 60H5Z" fill="#EDF0F7" stroke="#EFEEEA" stroke-width="4" mask="url(#path-2-inside-2_295_726)"/>
</svg>
