<svg width="115" height="27" viewBox="0 0 115 27" fill="none" xmlns="http://www.w3.org/2000/svg">
<path d="M0.574192 4.1059C0.957337 3.24264 1.47065 2.50886 2.11517 1.9035C2.75864 1.29706 3.50394 0.828734 4.3479 0.497456C5.19187 0.166179 6.07573 0 6.99948 0C7.92322 0 8.80708 0.166179 9.6521 0.497456C10.4971 0.828734 11.2403 1.29598 11.8848 1.9035C12.5283 2.50886 13.0416 3.24264 13.4248 4.1059C13.8079 4.96701 14 5.93603 14 7.00971C14 8.07261 13.809 9.03299 13.4248 9.89626C13.0416 10.7574 12.5283 11.4944 11.8848 12.1073C11.2403 12.7191 10.4961 13.1875 9.6521 13.5123C8.80813 13.8371 7.92322 14 6.99948 14C6.07573 14 5.19187 13.8371 4.3479 13.5123C3.50289 13.1875 2.75864 12.7191 2.11517 12.1073C1.47065 11.4944 0.957337 10.7574 0.574192 9.89626C0.191047 9.03299 0 8.07261 0 7.00971C0 5.93603 0.191047 4.96809 0.574192 4.1059ZM2.26108 9.22075C2.5277 9.89625 2.89195 10.4757 3.35383 10.9635C3.8157 11.4501 4.35945 11.831 4.98508 12.1073C5.61071 12.3814 6.28147 12.5195 6.99843 12.5195C7.70278 12.5195 8.3683 12.3825 8.99393 12.1073C9.61955 11.831 10.1633 11.4501 10.6252 10.9635C11.086 10.4757 11.4545 9.89625 11.7284 9.22075C12.0024 8.54632 12.1389 7.81039 12.1389 7.00971C12.1389 6.20903 12.0024 5.47418 11.7284 4.79867C11.4545 4.12425 11.0871 3.5437 10.6252 3.05596C10.1633 2.56929 9.61955 2.18838 8.99393 1.91429C8.3683 1.6402 7.70278 1.50208 6.99843 1.50208C6.28147 1.50208 5.60966 1.63912 4.98508 1.91429C4.35945 2.18838 3.8157 2.57037 3.35383 3.05596C2.89195 3.5437 2.5277 4.12533 2.26108 4.79867C1.9934 5.47418 1.86009 6.21119 1.86009 7.00971C1.86009 7.80823 1.9934 8.54632 2.26108 9.22075ZM10.1623 9.41714C9.96176 9.78619 9.71298 10.0991 9.41486 10.3549C9.11674 10.6106 8.78294 10.8048 8.41239 10.9354C8.04184 11.066 7.65554 11.1318 7.25455 11.1318C6.65937 11.1318 6.12192 11.025 5.64115 10.8135C5.16143 10.5998 4.75099 10.3074 4.41194 9.93186C4.07183 9.55634 3.80625 9.11716 3.6194 8.61107C3.43046 8.10498 3.33703 7.55896 3.33703 6.97194C3.33703 6.3709 3.42416 5.81625 3.60156 5.30368C3.77686 4.79112 4.03299 4.34762 4.3668 3.97426C4.70166 3.59874 5.1079 3.30523 5.58866 3.09265C6.06838 2.88115 6.61213 2.77432 7.21991 2.77432C7.6461 2.77432 8.04289 2.8369 8.41449 2.96208C8.78608 3.08725 9.11569 3.27177 9.40751 3.51457C9.69933 3.75844 9.94182 4.06166 10.1371 4.42315C10.3313 4.78573 10.4593 5.20549 10.5202 5.6792H9.0989C9.00128 5.2411 8.78189 4.89795 8.44283 4.64868C8.10272 4.39834 7.69543 4.27316 7.22096 4.27316C6.52815 4.27316 6.00015 4.52027 5.63485 5.01449C5.2706 5.50655 5.08795 6.14753 5.08795 6.93418C5.08795 7.29675 5.13939 7.64313 5.24331 7.97441C5.34618 8.30569 5.49209 8.5938 5.68104 8.83552C5.86894 9.07939 6.09672 9.27363 6.3644 9.41606C6.63208 9.5585 6.92914 9.63296 7.2577 9.63296C7.76891 9.63296 8.18775 9.50023 8.51526 9.23802C8.84382 8.9758 9.03697 8.62078 9.0989 8.1708H10.5748C10.5024 8.63265 10.3659 9.04918 10.1644 9.41714H10.1623Z" fill="#EDF0F7"/>
<path d="M22.087 2.296C21.555 2.296 21.0737 2.41 20.643 2.638C20.2123 2.866 19.845 3.19533 19.541 3.626C19.2497 4.05667 19.028 4.576 18.876 5.184C18.724 5.792 18.648 6.476 18.648 7.236C18.648 8.262 18.7747 9.14233 19.028 9.877C19.2813 10.599 19.6677 11.1563 20.187 11.549C20.7063 11.9417 21.3587 12.138 22.144 12.138C22.6887 12.138 23.2207 12.081 23.74 11.967C24.2593 11.8403 24.785 11.6757 25.317 11.473V13.544C24.7977 13.772 24.2593 13.9367 23.702 14.038C23.1573 14.1393 22.543 14.19 21.859 14.19C20.529 14.19 19.4333 13.905 18.572 13.335C17.7107 12.7523 17.0647 11.9417 16.634 10.903C16.216 9.85167 16.007 8.623 16.007 7.217C16.007 6.191 16.14 5.25367 16.406 4.405C16.672 3.55633 17.0647 2.82167 17.584 2.201C18.1033 1.58033 18.743 1.099 19.503 0.756999C20.263 0.414999 21.1307 0.243999 22.106 0.243999C22.752 0.243999 23.4043 0.326333 24.063 0.491C24.7343 0.642999 25.3233 0.858332 25.83 1.137L24.975 3.132C24.5317 2.91667 24.0693 2.72667 23.588 2.562C23.1193 2.38467 22.619 2.296 22.087 2.296ZM38.4884 7.198C38.4884 8.24933 38.368 9.20567 38.1274 10.067C37.8867 10.9157 37.513 11.6503 37.0064 12.271C36.5124 12.8917 35.8854 13.3667 35.1254 13.696C34.3654 14.0253 33.4724 14.19 32.4464 14.19C31.4077 14.19 30.5084 14.0253 29.7484 13.696C28.9884 13.354 28.3614 12.879 27.8674 12.271C27.3734 11.6503 26.9997 10.9093 26.7464 10.048C26.5057 9.18667 26.3854 8.23033 26.3854 7.179C26.3854 5.773 26.6007 4.55067 27.0314 3.512C27.4747 2.47333 28.146 1.669 29.0454 1.099C29.9447 0.516333 31.0847 0.225 32.4654 0.225C33.8334 0.225 34.9607 0.516333 35.8474 1.099C36.734 1.669 37.3927 2.47967 37.8234 3.531C38.2667 4.56967 38.4884 5.792 38.4884 7.198ZM29.0834 7.198C29.0834 8.224 29.1974 9.10433 29.4254 9.839C29.6534 10.5737 30.0144 11.1373 30.5084 11.53C31.015 11.9227 31.661 12.119 32.4464 12.119C33.2317 12.119 33.8714 11.9227 34.3654 11.53C34.8594 11.1373 35.2204 10.5737 35.4484 9.839C35.6764 9.10433 35.7904 8.224 35.7904 7.198C35.7904 5.66533 35.5244 4.462 34.9924 3.588C34.473 2.714 33.6244 2.277 32.4464 2.277C31.661 2.277 31.015 2.47333 30.5084 2.866C30.0144 3.25867 29.6534 3.82233 29.4254 4.557C29.1974 5.29167 29.0834 6.172 29.0834 7.198ZM44.3653 0.433999C46.012 0.433999 47.2217 0.801333 47.9943 1.536C48.767 2.27067 49.1533 3.284 49.1533 4.576C49.1533 5.15867 49.071 5.716 48.9063 6.248C48.7417 6.76733 48.463 7.236 48.0703 7.654C47.6903 8.072 47.1837 8.40133 46.5503 8.642C45.917 8.88267 45.138 9.003 44.2133 9.003H42.9973V14H40.4513V0.433999H44.3653ZM44.2703 2.448H42.9973V6.989H43.9473C44.5047 6.989 44.9797 6.913 45.3723 6.761C45.765 6.59633 46.0627 6.343 46.2653 6.001C46.4807 5.659 46.5883 5.21567 46.5883 4.671C46.5883 3.92367 46.3983 3.36633 46.0183 2.999C45.6383 2.63167 45.0557 2.448 44.2703 2.448ZM54.8179 6.419L57.5539 0.433999H60.3089L56.0909 8.718V14H53.5449V8.813L49.3079 0.433999H52.0819L54.8179 6.419ZM65.0262 0.433999C66.1535 0.433999 67.0845 0.579666 67.8192 0.870999C68.5538 1.16233 69.0985 1.60567 69.4532 2.201C69.8078 2.78367 69.9852 3.52467 69.9852 4.424C69.9852 5.08267 69.8775 5.64633 69.6622 6.115C69.4468 6.58367 69.1555 6.97633 68.7882 7.293C68.4335 7.597 68.0472 7.844 67.6292 8.034L71.2772 14H68.3892L65.4442 8.642H63.7912V14H61.2452V0.433999H65.0262ZM64.9122 2.467H63.7912V6.647H64.9502C65.4948 6.647 65.9445 6.56467 66.2992 6.4C66.6665 6.23533 66.9388 5.99467 67.1162 5.678C67.3062 5.36133 67.4012 4.96867 67.4012 4.5C67.4012 4.006 67.3125 3.61333 67.1352 3.322C66.9578 3.018 66.6855 2.80267 66.3182 2.676C65.9508 2.53667 65.4822 2.467 64.9122 2.467ZM78.5715 14H72.9285V12.613L74.4865 12.005V2.448L72.9285 1.821V0.433999H78.5715V1.821L77.0325 2.448V12.005L78.5715 12.613V14ZM85.3057 6.552H90.2647V13.449C89.5934 13.6897 88.8777 13.8733 88.1177 14C87.3704 14.1267 86.5471 14.19 85.6477 14.19C84.3684 14.19 83.2727 13.9177 82.3607 13.373C81.4614 12.8283 80.7711 12.0367 80.2897 10.998C79.8084 9.95933 79.5677 8.69267 79.5677 7.198C79.5677 5.77933 79.8274 4.55067 80.3467 3.512C80.8661 2.47333 81.6197 1.669 82.6077 1.099C83.5957 0.528999 84.8054 0.243999 86.2367 0.243999C86.9587 0.243999 87.6491 0.319999 88.3077 0.472C88.9791 0.611333 89.5871 0.807666 90.1317 1.061L89.2767 3.056C88.8334 2.84067 88.3521 2.66333 87.8327 2.524C87.3261 2.372 86.7814 2.296 86.1987 2.296C85.3374 2.296 84.6091 2.49867 84.0137 2.904C83.4311 3.30933 82.9814 3.88567 82.6647 4.633C82.3607 5.36767 82.2087 6.23533 82.2087 7.236C82.2087 8.19867 82.3417 9.05367 82.6077 9.801C82.8737 10.5357 83.2727 11.112 83.8047 11.53C84.3494 11.9353 85.0524 12.138 85.9137 12.138C86.1797 12.138 86.4267 12.1253 86.6547 12.1C86.8827 12.0747 87.0917 12.043 87.2817 12.005C87.4844 11.967 87.6617 11.929 87.8137 11.891V8.623H85.3057V6.552ZM102.875 14H100.31V7.977H95.0664V14H92.5204V0.433999H95.0664V5.906H100.31V0.433999H102.875V14ZM110.23 14H107.665V2.486H104.131V0.433999H113.745V2.486H110.23V14Z" fill="#EDF0F7"/>
<path d="M4.482 24L3.987 22.299H1.791L1.296 24H0L2.16 17.547H3.609L5.778 24H4.482ZM3.186 19.653C3.162 19.557 3.129 19.443 3.087 19.311C3.051 19.173 3.015 19.032 2.979 18.888C2.949 18.744 2.919 18.609 2.889 18.483C2.865 18.627 2.835 18.771 2.799 18.915C2.763 19.053 2.727 19.185 2.691 19.311C2.661 19.437 2.631 19.551 2.601 19.653L2.097 21.309H3.699L3.186 19.653ZM7.61941 24H6.42241V17.16H7.61941V24ZM10.1155 24H8.91851V17.16H10.1155V24ZM15.5109 17.574C16.0449 17.574 16.4859 17.643 16.8339 17.781C17.1819 17.919 17.4399 18.129 17.6079 18.411C17.7759 18.687 17.8599 19.038 17.8599 19.464C17.8599 19.776 17.8089 20.043 17.7069 20.265C17.6049 20.487 17.4669 20.673 17.2929 20.823C17.1249 20.967 16.9419 21.084 16.7439 21.174L18.4719 24H17.1039L15.7089 21.462H14.9259V24H13.7199V17.574H15.5109ZM15.4569 18.537H14.9259V20.517H15.4749C15.7329 20.517 15.9459 20.478 16.1139 20.4C16.2879 20.322 16.4169 20.208 16.5009 20.058C16.5909 19.908 16.6359 19.722 16.6359 19.5C16.6359 19.266 16.5939 19.08 16.5099 18.942C16.4259 18.798 16.2969 18.696 16.1229 18.636C15.9489 18.57 15.7269 18.537 15.4569 18.537ZM20.3284 19.122V24H19.1404V19.122H20.3284ZM19.7434 17.241C19.9174 17.241 20.0674 17.286 20.1934 17.376C20.3194 17.46 20.3824 17.613 20.3824 17.835C20.3824 18.051 20.3194 18.207 20.1934 18.303C20.0674 18.393 19.9174 18.438 19.7434 18.438C19.5574 18.438 19.4014 18.393 19.2754 18.303C19.1494 18.207 19.0864 18.051 19.0864 17.835C19.0864 17.613 19.1494 17.46 19.2754 17.376C19.4014 17.286 19.5574 17.241 19.7434 17.241ZM23.1665 19.032C23.4665 19.032 23.7275 19.092 23.9495 19.212C24.1715 19.332 24.3575 19.512 24.5075 19.752H24.5435L24.6515 19.122H25.6595V24.036C25.6595 24.498 25.5755 24.885 25.4075 25.197C25.2395 25.515 24.9875 25.755 24.6515 25.917C24.3215 26.079 23.9015 26.16 23.3915 26.16C23.0495 26.16 22.7375 26.136 22.4555 26.088C22.1795 26.046 21.9155 25.971 21.6635 25.863V24.927C21.8375 25.005 22.0145 25.071 22.1945 25.125C22.3805 25.185 22.5725 25.23 22.7705 25.26C22.9685 25.29 23.1785 25.305 23.4005 25.305C23.7485 25.305 24.0125 25.2 24.1925 24.99C24.3785 24.78 24.4715 24.48 24.4715 24.09V23.964C24.4715 23.874 24.4745 23.769 24.4805 23.649C24.4925 23.529 24.5015 23.433 24.5075 23.361H24.4715C24.3275 23.613 24.1475 23.799 23.9315 23.919C23.7155 24.033 23.4545 24.09 23.1485 24.09C22.6025 24.09 22.1705 23.868 21.8525 23.424C21.5405 22.98 21.3845 22.362 21.3845 21.57C21.3845 21.036 21.4565 20.58 21.6005 20.202C21.7445 19.824 21.9485 19.536 22.2125 19.338C22.4825 19.134 22.8005 19.032 23.1665 19.032ZM23.5265 19.959C23.3225 19.959 23.1515 20.022 23.0135 20.148C22.8815 20.268 22.7795 20.448 22.7075 20.688C22.6355 20.928 22.5995 21.228 22.5995 21.588C22.5995 22.116 22.6775 22.515 22.8335 22.785C22.9895 23.055 23.2235 23.19 23.5355 23.19C23.7155 23.19 23.8685 23.166 23.9945 23.118C24.1205 23.064 24.2225 22.98 24.3005 22.866C24.3785 22.746 24.4385 22.596 24.4805 22.416C24.5225 22.23 24.5435 22.008 24.5435 21.75V21.579C24.5435 21.189 24.5075 20.877 24.4355 20.643C24.3695 20.403 24.2615 20.229 24.1115 20.121C23.9615 20.013 23.7665 19.959 23.5265 19.959ZM28.1507 18.789C28.1507 18.981 28.1417 19.17 28.1237 19.356C28.1117 19.536 28.0997 19.671 28.0877 19.761H28.1597C28.2557 19.593 28.3697 19.458 28.5017 19.356C28.6397 19.248 28.7927 19.167 28.9607 19.113C29.1347 19.059 29.3147 19.032 29.5007 19.032C29.8427 19.032 30.1367 19.095 30.3827 19.221C30.6287 19.347 30.8207 19.542 30.9587 19.806C31.0967 20.064 31.1657 20.403 31.1657 20.823V24H29.9687V21.048C29.9687 20.676 29.9057 20.4 29.7797 20.22C29.6537 20.04 29.4557 19.95 29.1857 19.95C28.9277 19.95 28.7207 20.016 28.5647 20.148C28.4087 20.274 28.3007 20.463 28.2407 20.715C28.1807 20.961 28.1507 21.264 28.1507 21.624V24H26.9537V17.16H28.1507V18.789ZM34.346 23.181C34.478 23.181 34.604 23.169 34.724 23.145C34.85 23.115 34.967 23.082 35.075 23.046V23.892C34.949 23.946 34.796 23.991 34.616 24.027C34.436 24.069 34.235 24.09 34.013 24.09C33.737 24.09 33.491 24.045 33.275 23.955C33.059 23.859 32.888 23.697 32.762 23.469C32.642 23.241 32.582 22.923 32.582 22.515V19.977H31.97V19.482L32.654 19.086L33.014 18.051H33.77V19.122H35.03V19.977H33.77V22.506C33.77 22.734 33.821 22.905 33.923 23.019C34.031 23.127 34.172 23.181 34.346 23.181ZM40.0587 17.574C40.5927 17.574 41.0337 17.643 41.3817 17.781C41.7297 17.919 41.9877 18.129 42.1557 18.411C42.3237 18.687 42.4077 19.038 42.4077 19.464C42.4077 19.776 42.3567 20.043 42.2547 20.265C42.1527 20.487 42.0147 20.673 41.8407 20.823C41.6727 20.967 41.4897 21.084 41.2917 21.174L43.0197 24H41.6517L40.2567 21.462H39.4737V24H38.2677V17.574H40.0587ZM40.0047 18.537H39.4737V20.517H40.0227C40.2807 20.517 40.4937 20.478 40.6617 20.4C40.8357 20.322 40.9647 20.208 41.0487 20.058C41.1387 19.908 41.1837 19.722 41.1837 19.5C41.1837 19.266 41.1417 19.08 41.0577 18.942C40.9737 18.798 40.8447 18.696 40.6707 18.636C40.4967 18.57 40.2747 18.537 40.0047 18.537ZM45.5963 19.032C46.0163 19.032 46.3763 19.122 46.6763 19.302C46.9823 19.476 47.2193 19.728 47.3873 20.058C47.5553 20.382 47.6393 20.778 47.6393 21.246V21.822H44.6513C44.6633 22.266 44.7713 22.611 44.9753 22.857C45.1853 23.097 45.4793 23.217 45.8573 23.217C46.1573 23.217 46.4243 23.187 46.6583 23.127C46.8923 23.061 47.1353 22.968 47.3873 22.848V23.757C47.1593 23.871 46.9223 23.955 46.6763 24.009C46.4303 24.063 46.1273 24.09 45.7673 24.09C45.3113 24.09 44.9063 24 44.5523 23.82C44.2043 23.634 43.9313 23.355 43.7333 22.983C43.5353 22.611 43.4363 22.149 43.4363 21.597C43.4363 21.039 43.5263 20.571 43.7063 20.193C43.8863 19.809 44.1383 19.521 44.4623 19.329C44.7923 19.131 45.1703 19.032 45.5963 19.032ZM45.6143 19.869C45.3443 19.869 45.1253 19.968 44.9573 20.166C44.7953 20.358 44.6993 20.646 44.6693 21.03H46.5053C46.5053 20.802 46.4723 20.601 46.4063 20.427C46.3403 20.253 46.2413 20.118 46.1093 20.022C45.9833 19.92 45.8183 19.869 45.6143 19.869ZM51.8756 22.587C51.8756 22.911 51.8036 23.187 51.6596 23.415C51.5156 23.637 51.3026 23.805 51.0206 23.919C50.7386 24.033 50.3846 24.09 49.9586 24.09C49.6346 24.09 49.3526 24.066 49.1126 24.018C48.8726 23.97 48.6416 23.895 48.4196 23.793V22.83C48.6596 22.944 48.9176 23.04 49.1936 23.118C49.4756 23.196 49.7306 23.235 49.9586 23.235C50.2286 23.235 50.4236 23.187 50.5436 23.091C50.6636 22.995 50.7236 22.866 50.7236 22.704C50.7236 22.608 50.6966 22.521 50.6426 22.443C50.5946 22.365 50.4926 22.284 50.3366 22.2C50.1866 22.11 49.9676 21.999 49.6796 21.867C49.3976 21.741 49.1636 21.615 48.9776 21.489C48.7916 21.363 48.6506 21.213 48.5546 21.039C48.4586 20.859 48.4106 20.634 48.4106 20.364C48.4106 19.926 48.5756 19.596 48.9056 19.374C49.2416 19.146 49.6796 19.032 50.2196 19.032C50.5136 19.032 50.7866 19.062 51.0386 19.122C51.2966 19.176 51.5546 19.266 51.8126 19.392L51.4616 20.229C51.3176 20.163 51.1706 20.106 51.0206 20.058C50.8766 20.004 50.7356 19.962 50.5976 19.932C50.4656 19.902 50.3336 19.887 50.2016 19.887C49.9916 19.887 49.8326 19.926 49.7246 20.004C49.6166 20.076 49.5626 20.181 49.5626 20.319C49.5626 20.415 49.5896 20.502 49.6436 20.58C49.6976 20.652 49.7996 20.727 49.9496 20.805C50.0996 20.883 50.3126 20.982 50.5886 21.102C50.8646 21.21 51.0986 21.327 51.2906 21.453C51.4826 21.573 51.6266 21.723 51.7226 21.903C51.8246 22.083 51.8756 22.311 51.8756 22.587ZM54.7896 19.032C55.2096 19.032 55.5696 19.122 55.8696 19.302C56.1756 19.476 56.4126 19.728 56.5806 20.058C56.7486 20.382 56.8326 20.778 56.8326 21.246V21.822H53.8446C53.8566 22.266 53.9646 22.611 54.1686 22.857C54.3786 23.097 54.6726 23.217 55.0506 23.217C55.3506 23.217 55.6176 23.187 55.8516 23.127C56.0856 23.061 56.3286 22.968 56.5806 22.848V23.757C56.3526 23.871 56.1156 23.955 55.8696 24.009C55.6236 24.063 55.3206 24.09 54.9606 24.09C54.5046 24.09 54.0996 24 53.7456 23.82C53.3976 23.634 53.1246 23.355 52.9266 22.983C52.7286 22.611 52.6296 22.149 52.6296 21.597C52.6296 21.039 52.7196 20.571 52.8996 20.193C53.0796 19.809 53.3316 19.521 53.6556 19.329C53.9856 19.131 54.3636 19.032 54.7896 19.032ZM54.8076 19.869C54.5376 19.869 54.3186 19.968 54.1506 20.166C53.9886 20.358 53.8926 20.646 53.8626 21.03H55.6986C55.6986 20.802 55.6656 20.601 55.5996 20.427C55.5336 20.253 55.4346 20.118 55.3026 20.022C55.1766 19.92 55.0116 19.869 54.8076 19.869ZM60.349 19.032C60.433 19.032 60.52 19.035 60.61 19.041C60.7 19.047 60.775 19.059 60.835 19.077L60.727 20.13C60.667 20.118 60.595 20.109 60.511 20.103C60.433 20.091 60.349 20.085 60.259 20.085C60.109 20.085 59.962 20.115 59.818 20.175C59.674 20.229 59.545 20.313 59.431 20.427C59.317 20.535 59.224 20.676 59.152 20.85C59.086 21.024 59.053 21.231 59.053 21.471V24H57.856V19.122H58.774L58.936 19.968H58.999C59.089 19.794 59.2 19.638 59.332 19.5C59.47 19.356 59.623 19.242 59.791 19.158C59.965 19.074 60.151 19.032 60.349 19.032ZM62.7247 24L60.9697 19.122H62.2207L63.0937 21.939C63.1357 22.053 63.1687 22.179 63.1927 22.317C63.2227 22.449 63.2497 22.581 63.2737 22.713C63.2977 22.839 63.3097 22.95 63.3097 23.046H63.3457C63.3577 22.944 63.3727 22.83 63.3907 22.704C63.4147 22.572 63.4447 22.44 63.4807 22.308C63.5167 22.176 63.5497 22.053 63.5797 21.939L64.4617 19.122H65.7127L63.9577 24H62.7247ZM68.2808 19.032C68.7008 19.032 69.0608 19.122 69.3608 19.302C69.6668 19.476 69.9038 19.728 70.0718 20.058C70.2398 20.382 70.3238 20.778 70.3238 21.246V21.822H67.3358C67.3478 22.266 67.4558 22.611 67.6598 22.857C67.8698 23.097 68.1638 23.217 68.5418 23.217C68.8418 23.217 69.1088 23.187 69.3428 23.127C69.5768 23.061 69.8198 22.968 70.0718 22.848V23.757C69.8438 23.871 69.6068 23.955 69.3608 24.009C69.1148 24.063 68.8118 24.09 68.4518 24.09C67.9958 24.09 67.5908 24 67.2368 23.82C66.8888 23.634 66.6158 23.355 66.4178 22.983C66.2198 22.611 66.1208 22.149 66.1208 21.597C66.1208 21.039 66.2108 20.571 66.3908 20.193C66.5708 19.809 66.8228 19.521 67.1468 19.329C67.4768 19.131 67.8548 19.032 68.2808 19.032ZM68.2988 19.869C68.0288 19.869 67.8098 19.968 67.6418 20.166C67.4798 20.358 67.3838 20.646 67.3538 21.03H69.1898C69.1898 20.802 69.1568 20.601 69.0908 20.427C69.0248 20.253 68.9258 20.118 68.7938 20.022C68.6678 19.92 68.5028 19.869 68.2988 19.869ZM72.8592 24.09C72.3372 24.09 71.9142 23.88 71.5902 23.46C71.2662 23.034 71.1042 22.404 71.1042 21.57C71.1042 20.736 71.2692 20.106 71.5992 19.68C71.9292 19.248 72.3612 19.032 72.8952 19.032C73.1172 19.032 73.3092 19.065 73.4712 19.131C73.6392 19.191 73.7832 19.275 73.9032 19.383C74.0232 19.491 74.1282 19.611 74.2182 19.743H74.2542C74.2422 19.659 74.2272 19.53 74.2092 19.356C74.1912 19.182 74.1822 19.02 74.1822 18.87V17.16H75.3792V24H74.4612L74.2362 23.361H74.1822C74.1042 23.493 74.0052 23.616 73.8852 23.73C73.7652 23.838 73.6212 23.925 73.4532 23.991C73.2852 24.057 73.0872 24.09 72.8592 24.09ZM73.2552 23.172C73.6212 23.172 73.8792 23.052 74.0292 22.812C74.1792 22.572 74.2542 22.209 74.2542 21.723V21.579C74.2542 21.051 74.1822 20.649 74.0382 20.373C73.8942 20.097 73.6302 19.959 73.2462 19.959C72.9462 19.959 72.7152 20.103 72.5532 20.391C72.3972 20.673 72.3192 21.072 72.3192 21.588C72.3192 22.104 72.4002 22.497 72.5622 22.767C72.7242 23.037 72.9552 23.172 73.2552 23.172Z" fill="#EDF0F7"/>
</svg>
