<svg width="44" height="44" viewBox="0 0 44 44" fill="none" xmlns="http://www.w3.org/2000/svg">
<rect x="1" y="1" width="42" height="42" rx="9" fill="#1760D7" stroke="#1760D7" stroke-width="2"/>
<path fill-rule="evenodd" clip-rule="evenodd" d="M21.1225 22.6994C24.8257 26.4016 25.9262 21.8578 28.2837 24.2134C30.5576 26.4863 31.8634 26.9406 28.9843 29.8197C28.6223 30.1097 26.331 33.5978 18.2766 25.5454C10.2222 17.4929 13.7064 15.1986 13.9964 14.8376C16.8832 11.9508 17.3308 13.2643 19.6037 15.5372C21.9603 17.8938 17.4194 18.9972 21.1225 22.6994Z" stroke="white" stroke-width="2" stroke-linecap="round" stroke-linejoin="round"/>
<path d="M24.4648 16.4707C26.1092 16.7898 27.3945 18.0752 27.7137 19.7195" stroke="white" stroke-width="2" stroke-linecap="round" stroke-linejoin="round"/>
<path d="M24.4648 13.1816C27.9005 13.5631 30.6141 16.2738 30.9994 19.7094" stroke="white" stroke-width="2" stroke-linecap="round" stroke-linejoin="round"/>
</svg>
