<svg width="519" height="56" viewBox="0 0 519 56" fill="none" xmlns="http://www.w3.org/2000/svg">
<g clip-path="url(#clip0_322_641)">
<path d="M245.179 0L187.405 41.9518L187.617 0H161.153L103.378 41.9518L103.59 0H77.1262L0 56H30.6107L83.7329 17.4303L83.5331 56H84.0264H103.309H114.637L167.753 17.4303L167.559 56H168.053H187.33H198.663L251.779 17.4303L251.586 56H271.356L271.637 0H245.179Z" fill="#9DAFCB"/>
</g>
<g clip-path="url(#clip1_322_641)">
<path d="M492.542 0L434.768 41.9518L434.98 0H408.516L350.741 41.9518L350.954 0H324.489L247.363 56H277.974L331.096 17.4303L330.896 56H331.389H350.673H362L415.116 17.4303L414.922 56H415.416H434.693H446.026L499.142 17.4303L498.949 56H518.719L519 0H492.542Z" fill="#9DAFCB"/>
</g>
<defs>
<clipPath id="clip0_322_641">
<rect width="271.637" height="56" fill="white"/>
</clipPath>
<clipPath id="clip1_322_641">
<rect width="248.519" height="56" fill="white" transform="translate(270.481)"/>
</clipPath>
</defs>
</svg>
