<svg width="38" height="40" viewBox="0 0 38 40" fill="none" xmlns="http://www.w3.org/2000/svg">
<path d="M10.0109 23.4202C9.94333 24.5073 10.1215 25.5639 10.5179 26.5261C11.0955 27.9238 12.1401 29.1326 13.5781 29.9548L16.6352 31.7057C17.1298 31.9858 17.2988 32.6162 17.0162 33.1034L16.9086 33.2861C16.7673 33.5327 16.5553 33.6941 16.2818 33.7672C16.0053 33.8403 15.7411 33.8068 15.4953 33.6636L12.4412 31.9158C10.5455 30.8318 9.16906 29.2362 8.40401 27.3878C7.73729 25.7679 7.5345 23.9652 7.86633 22.1504C6.34238 21.0968 5.21785 19.6809 4.5542 18.0762C3.8844 16.4562 3.68469 14.6536 4.01344 12.8357C2.50486 11.7882 1.37726 10.3753 0.707458 8.77362C-0.0668059 6.92529 -0.226577 4.83336 0.332614 2.76579L0.347976 2.70794L0.735108 1.27982L2.02862 2.01976L13.9191 8.82539C14.9054 5.88694 16.9117 3.59404 19.468 2.08066C22.5558 0.250604 26.4517 -0.434528 30.3046 0.274963L31.5244 0.500295L31.2049 1.68176L30.7225 3.46006C32.1665 4.66893 33.5246 6.33152 34.8089 7.89666C35.6139 8.88325 36.3881 9.8272 37.1009 10.555C38.1364 11.6116 38.1917 12.991 37.7001 14.1664C37.5188 14.6018 37.2515 15.0129 36.9289 15.3661C36.5971 15.7285 36.2069 16.0299 35.7859 16.2339C34.7812 16.7181 33.626 16.7029 32.609 15.8198C31.4998 14.8545 29.9667 14.4922 28.5564 14.1542C27.352 13.8679 26.2152 13.5969 25.2811 13.0184C24.9923 12.8387 24.8203 12.5586 24.7987 12.2175C24.7742 11.8795 24.9063 11.5781 25.1705 11.3619L25.3456 11.2157C25.6898 10.9325 26.1537 10.896 26.5378 11.1213C27.1799 11.502 28.1017 11.7212 29.0849 11.9526C30.7624 12.3546 32.5844 12.787 34.1145 14.1176C34.3234 14.2973 34.5662 14.2973 34.7843 14.1938C34.9502 14.1115 35.1038 13.9928 35.236 13.8466C35.3804 13.6913 35.5002 13.5025 35.5862 13.2955C35.7552 12.8905 35.7613 12.4398 35.4633 12.1353C34.6829 11.3406 33.8748 10.354 33.0361 9.32477C31.6596 7.64696 30.1909 5.8504 28.7469 4.79987L28.117 4.34007L28.3167 3.59404L28.6578 2.33035C25.7697 2.05326 22.9338 2.66531 20.6417 4.02339C18.4111 5.34188 16.6936 7.37596 15.9469 9.98554L25.6191 15.5183V15.5214C27.9142 16.8338 29.389 18.7917 30.0496 21.0633C30.4736 22.5219 30.5535 24.1114 30.2923 25.7405C30.0343 27.3391 29.4443 28.9743 28.5226 30.5547C26.2889 34.3914 22.0796 37.951 15.9131 39.9455C15.6366 40.0369 15.3662 40.0125 15.1082 39.8785C14.8501 39.7415 14.678 39.5314 14.5981 39.2513L14.5367 39.0442C14.3861 38.5113 14.6842 37.9571 15.2126 37.7866C20.7892 35.9839 24.5652 32.8141 26.5439 29.4189C27.3243 28.0791 27.8221 26.7119 28.0341 25.3873C28.243 24.0901 28.1816 22.8325 27.8467 21.6845C27.3489 19.9641 26.2244 18.4781 24.4761 17.4793H24.4731L2.30207 4.79378C2.23448 5.88085 2.41575 6.94357 2.82132 7.91188C3.40202 9.30955 4.44973 10.5154 5.87536 11.3314H5.87844L24.3625 21.9068C24.6083 22.0469 24.7711 22.257 24.8448 22.531C24.9186 22.802 24.8817 23.0639 24.7404 23.3106L24.6298 23.4963C24.344 23.9835 23.7111 24.151 23.2164 23.8708L6.16111 14.1085C6.09351 15.1956 6.26864 16.2522 6.66806 17.2144C7.24569 18.6121 8.28726 19.821 9.72518 20.6431H9.73132L22.0366 27.6863C22.2855 27.8263 22.4452 28.0364 22.519 28.3075C22.5927 28.5815 22.5589 28.8434 22.4145 29.087L22.307 29.2727C22.0212 29.763 21.3852 29.9304 20.8936 29.6473L10.0109 23.4202Z" fill="#2D3648"/>
</svg>
