<svg width="220" height="220" viewBox="0 0 220 220" fill="none" xmlns="http://www.w3.org/2000/svg">
<path fill-rule="evenodd" clip-rule="evenodd" d="M40.468 136.128C38.5888 131.251 37.278 126.375 36.563 121.626C35.8113 116.612 31.0813 113.239 26.1405 113.917C21.1355 114.678 17.6796 119.344 18.4405 124.349C19.348 130.408 20.998 136.586 23.3538 142.701C24.7563 146.34 28.2305 148.576 31.9063 148.576C33.0063 148.576 34.1155 148.384 35.1971 147.971C39.918 146.156 42.283 140.858 40.468 136.128Z" fill="#5E6B7A"/>
<path fill-rule="evenodd" clip-rule="evenodd" d="M45.8124 66.2718C48.4616 66.2718 51.0832 65.1352 52.8891 62.9352C55.6116 59.6168 58.8657 56.4085 62.5507 53.3835C66.4557 50.1568 67.0149 44.3818 63.7974 40.4768C60.5799 36.5627 54.8049 36.0035 50.8907 39.221C46.2982 43.0068 42.2099 47.0585 38.7449 51.2752C35.5182 55.1893 36.0774 60.9643 39.9916 64.1818C41.6966 65.5935 43.7591 66.2718 45.8124 66.2718Z" fill="#5E6B7A"/>
<path fill-rule="evenodd" clip-rule="evenodd" d="M26.2308 105.703C26.7074 105.777 27.1841 105.813 27.6608 105.813C32.0974 105.813 35.9933 102.578 36.7083 98.0584C37.5608 92.5584 39.0182 87.306 41.0441 82.4385C42.9874 77.7635 40.7691 72.3918 36.0941 70.4485C31.4283 68.5235 26.0566 70.7327 24.1133 75.3985C21.5283 81.6135 19.6674 88.296 18.5858 95.2259C17.8066 100.231 21.2349 104.924 26.2308 105.703Z" fill="#5E6B7A"/>
<path fill-rule="evenodd" clip-rule="evenodd" d="M79.1933 42.4853C80.33 42.4853 81.485 42.2745 82.6033 41.8253C87.0583 40.0286 91.9077 38.7361 96.9952 37.957C102 37.1961 105.447 32.5211 104.686 27.5161C103.916 22.5111 99.2227 19.0736 94.2452 19.8345C87.755 20.8245 81.54 22.4928 75.7742 24.812C71.0717 26.7003 68.7983 32.0353 70.6866 36.7378C72.1258 40.3128 75.5633 42.4853 79.1933 42.4853Z" fill="#5E6B7A"/>
<path fill-rule="evenodd" clip-rule="evenodd" d="M200.495 45.2863C198.011 40.8588 192.446 39.3005 188.019 41.7663C183.848 44.1038 179.925 46.6063 176.066 49.1546C166.303 38.0996 153.717 29.2538 138.876 23.8913C133.743 22.0855 128.399 20.7288 123 19.8855C117.949 19.0696 113.311 22.5071 112.513 27.503C111.725 32.4988 115.135 37.1921 120.14 37.9805C124.439 38.6588 128.692 39.7496 132.707 41.1613C143.918 45.2038 153.479 51.7855 161.078 59.9713C136.438 79.698 119.223 102.706 108.296 120.444C100.532 109.829 91.4388 100.103 81.163 91.4313C77.3038 88.1588 71.5104 88.6538 68.247 92.5131C64.9745 96.3814 65.4696 102.175 69.338 105.438C82.043 116.163 92.6856 128.657 100.991 142.572C102.641 145.359 105.638 147.055 108.856 147.055H109.085C112.394 146.972 115.401 145.111 116.95 142.187C124.146 128.685 142.048 99.2047 171.803 74.9863C181.263 92.5406 183.582 113.853 176.295 134.038C169.713 152.261 156.421 166.836 138.886 175.068C121.35 183.291 101.641 184.207 83.4087 177.626C75.0395 174.601 67.3762 170.118 60.5104 164.224C57.4304 161.63 54.6255 158.77 52.1871 155.717C49.0246 151.739 43.2496 151.106 39.308 154.26C35.348 157.413 34.697 163.179 37.8504 167.139C41.0587 171.154 44.7254 174.912 48.6487 178.194C57.1096 185.481 66.7162 191.082 77.1846 194.859C87.2679 198.507 97.7181 200.313 108.122 200.313C121.286 200.313 134.403 197.426 146.668 191.669C168.641 181.356 185.287 163.106 193.537 140.262C202.979 114.119 199.606 86.4446 186.717 64.0505C190.036 61.8688 193.427 59.7421 196.975 57.753C201.393 55.2871 202.97 49.6955 200.495 45.2863Z" fill="#5E6B7A"/>
</svg>
