<svg width="130" height="80" viewBox="0 0 130 80" fill="none" xmlns="http://www.w3.org/2000/svg">
<g clip-path="url(#clip0_295_722)">
<path d="M127.235 52.2568C127.277 50.8524 127.016 49.4523 126.46 48.1047C126.917 46.9773 127.166 45.8136 127.202 44.6422C127.247 43.2399 126.99 41.8414 126.438 40.4949C127.44 37.998 127.419 35.3541 126.379 32.8692C126.834 31.7415 127.083 30.578 127.121 29.4067C127.335 22.8779 120.939 16.7114 109.09 12.0217C97.5527 7.461 82.1414 4.82365 65.6877 4.60131C49.234 4.37898 33.676 6.60007 21.8627 10.8478C9.7454 15.2068 2.95694 21.2042 2.77282 27.7456C2.73891 29.1444 3.00354 30.5383 3.55783 31.8804C2.53821 34.3708 2.54964 37.013 3.59077 39.495C3.12157 40.6233 2.86005 41.7891 2.81266 42.9637C2.77578 44.3619 3.03919 45.7554 3.59394 47.0969C3.14075 48.2346 2.89797 49.4085 2.87166 50.5893C2.67788 56.8106 8.47873 62.7055 19.2568 67.2982C19.7965 67.5281 20.3436 67.7613 20.9139 67.9791C32.4575 72.5388 47.8666 75.1788 64.3165 75.3995C80.7665 75.6203 96.3319 73.4024 108.145 69.1546C120.248 64.7893 127.03 58.793 127.235 52.2568ZM106.693 59.5992C95.3299 63.6903 80.287 65.8147 64.3386 65.6138C48.3903 65.4128 33.4808 62.86 22.3728 58.468C14.1757 55.2445 8.8663 51.3047 6.81404 47.1004C7.10979 46.4804 7.47175 45.877 7.89683 45.2953C10.6253 47.7475 14.4122 50.0328 19.1723 52.0611C19.7157 52.2927 20.2628 52.5258 20.8331 52.7437C32.3767 57.3033 47.7858 59.9433 64.2357 60.164C80.6857 60.3848 96.2512 58.1669 108.061 53.9175C114.143 51.7318 118.884 49.1294 122.118 46.2582C122.557 46.8547 122.933 47.4735 123.243 48.1095C121.163 52.4603 115.465 56.4546 106.705 59.604L106.693 59.5992ZM6.7811 39.4859C7.07684 38.8658 7.43881 38.2624 7.86388 37.6808C8.59305 38.3313 9.37302 38.9526 10.2002 39.5419C9.39219 40.1129 8.62919 40.7147 7.91461 41.3446C7.47138 40.746 7.09249 40.1247 6.7811 39.4859ZM6.74815 31.8713C11.6604 21.5831 36.3378 13.995 65.6544 14.3823C83.0129 14.6166 98.5599 17.5992 109.252 22.1553C116.298 25.1574 121.234 28.8449 123.179 32.8777C122.88 33.5001 122.515 34.106 122.09 34.6907C119.052 31.9595 114.7 29.4442 109.16 27.2524C97.6163 22.6928 82.2073 20.0528 65.7573 19.832C49.3074 19.6113 33.7419 21.8292 21.9285 26.077C15.8527 28.2617 11.117 30.863 7.87489 33.7379C7.43506 33.1361 7.05847 32.5122 6.74815 31.8713ZM123.212 40.4923C122.913 41.1146 122.548 41.7206 122.122 42.3053C121.398 41.6558 120.622 41.0352 119.8 40.4463C120.61 39.8756 121.374 39.2729 122.087 38.641C122.527 39.2375 122.903 39.8563 123.212 40.4923ZM65.6873 21.9969C83.0458 22.2312 98.5965 25.2153 109.285 29.7699C114.027 31.7903 117.81 34.1209 120.376 36.6507C119.535 37.4733 118.602 38.2469 117.585 38.9639C114.999 37.4002 112.193 36.0264 109.211 34.8639C97.6672 30.3042 82.2582 27.6642 65.8082 27.4435C49.3582 27.2227 33.7748 29.4438 21.9615 33.6915C18.5616 34.8901 15.3691 36.3623 12.4482 38.0789C11.4092 37.3371 10.4546 36.5388 9.59306 35.6913C18.0532 27.3926 40.0901 21.6535 65.6873 21.9969ZM115.319 40.4191C112.645 41.9617 109.736 43.2895 106.646 44.378C95.2789 48.4675 80.233 50.6014 64.2742 50.3888C48.3155 50.1763 33.4104 47.6361 22.3069 43.2388C19.5991 42.1847 17.0448 40.9459 14.6806 39.5402C25.2223 33.3281 44.214 29.3231 65.7203 29.6115C83.0788 29.8458 98.6295 32.8299 109.318 37.3845C111.432 38.2792 113.439 39.2941 115.319 40.4191ZM12.4004 41.0111C14.5019 42.291 16.7566 43.4405 19.1394 44.4465C19.6827 44.6781 20.2298 44.9112 20.8002 45.1291C32.3438 49.6887 47.7528 52.3287 64.2028 52.5495C80.6527 52.7702 96.2182 50.5523 108.028 46.303C111.438 45.1032 114.639 43.6271 117.566 41.9046C118.596 42.6417 119.544 43.4336 120.402 44.2732C117.462 47.1512 112.821 49.7785 106.661 51.9847C95.2933 56.0741 80.2473 58.2081 64.2886 57.9955C48.3298 57.7829 33.4441 55.2438 22.3398 50.8534C16.6972 48.6214 12.4091 46.0614 9.62149 43.3111C10.4602 42.4939 11.3895 41.7248 12.4004 41.0111ZM124.066 44.2864L124.122 44.2207L124.126 44.3587L124.066 44.2864ZM124.023 36.6782C124.041 36.6571 124.061 36.6335 124.079 36.6124C124.076 36.6577 124.082 36.7036 124.081 36.7462L124.023 36.6782ZM65.6237 6.76513C82.9822 6.99944 98.5292 9.98196 109.218 14.5366C118.47 18.479 124.068 23.5979 124.065 29.1243C121.085 25.6027 116.032 22.3648 109.128 19.631C97.5879 15.0729 82.1788 12.433 65.7289 12.2122C49.2789 11.9915 33.7089 14.2146 21.8956 18.4624C14.399 21.1588 8.94445 24.4847 5.82638 28.1739C5.82209 28.0428 5.82006 27.909 5.82547 27.7785C6.19958 15.754 33.0239 6.32938 65.6237 6.76513ZM5.92708 35.7096L5.85933 35.7885L5.85968 35.6342C5.87816 35.6601 5.9086 35.6838 5.92708 35.7096ZM5.96003 43.3242L5.89227 43.4031L5.89263 43.2488L5.96003 43.3242ZM106.735 67.228C95.3636 71.3159 80.3176 73.4498 64.3626 73.2388C48.4075 73.0279 33.5047 70.4851 22.4004 66.0946C11.7383 61.8819 5.91078 56.4856 5.91653 50.8739C8.64991 54.1075 13.1373 57.1044 19.1925 59.6846C19.7321 59.9146 20.2792 60.1477 20.8496 60.3656C32.3932 64.9252 47.8022 67.5652 64.2522 67.786C80.7022 68.0067 96.2676 65.7888 108.081 61.541C115.569 58.8483 121.016 55.5261 124.128 51.8558C124.13 51.9827 124.143 52.1102 124.151 52.225C123.988 57.9134 117.801 63.2403 106.741 67.2201L106.735 67.228Z" fill="#0B367D"/>
</g>
<defs>
<clipPath id="clip0_295_722">
<rect width="130" height="80" fill="white"/>
</clipPath>
</defs>
</svg>
