<svg width="146" height="240" viewBox="0 0 146 240" fill="none" xmlns="http://www.w3.org/2000/svg">
<path d="M77.8824 156C77.8824 70.3959 60.7089 0.999997 39.5243 0.999998C18.3397 0.999999 1.16613 70.3959 1.16613 156C1.16613 241.604 18.3397 311 39.5243 311C60.7089 311 77.8825 241.604 77.8824 156Z" stroke="#174CA3" stroke-opacity="0.5" stroke-miterlimit="10"/>
<path d="M137.282 156.036C137.282 109.065 127.955 70.987 116.45 70.987C104.946 70.987 95.619 109.065 95.619 156.036C95.619 203.006 104.946 241.084 116.45 241.084C127.955 241.084 137.282 203.006 137.282 156.036Z" stroke="#174CA3" stroke-opacity="0.5" stroke-miterlimit="10"/>
<path d="M47.4713 307.659C81.1079 272.042 118.285 239.971 158.423 211.946C240.636 154.705 307.825 156.007 307.825 156.007" stroke="#174CA3" stroke-opacity="0.5" stroke-miterlimit="10"/>
<path d="M47.4713 4.40689C81.1051 40.0316 118.283 72.108 158.423 100.135C240.636 157.299 307.825 156.059 307.825 156.059" stroke="#174CA3" stroke-opacity="0.5" stroke-miterlimit="10"/>
<path d="M0 156L310 155.999" stroke="#174CA3" stroke-opacity="0.5" stroke-miterlimit="10"/>
<path d="M290.281 156.072C290.281 156.072 221.024 162.551 142.84 197.302C52.7665 237.354 15.165 275.686 15.165 275.686" stroke="#174CA3" stroke-opacity="0.5" stroke-miterlimit="10"/>
<path d="M4.32593 217.756C4.32593 217.756 56.1188 187.035 143.104 172.806C192.071 164.808 281.311 156.299 281.311 156.299" stroke="#174CA3" stroke-opacity="0.5" stroke-miterlimit="10"/>
<path d="M290.281 155.599C290.281 155.599 221.024 149.12 142.84 114.369C52.7665 74.3166 15.165 35.9851 15.165 35.9851" stroke="#174CA3" stroke-opacity="0.5" stroke-miterlimit="10"/>
<path d="M4.32593 93.9815C4.32593 93.9815 56.1188 124.687 143.104 138.931C192.071 146.929 281.311 155.439 281.311 155.439" stroke="#174CA3" stroke-opacity="0.5" stroke-miterlimit="10"/>
</svg>
