<svg width="229" height="241" viewBox="0 0 229 241" fill="none" xmlns="http://www.w3.org/2000/svg">
<path d="M156 240C241.604 240 311 171.015 311 85.9167C311 0.818939 241.604 -68.1665 156 -68.1665C70.3959 -68.1665 1 0.818939 1 85.9167C1 171.015 70.3959 240 156 240Z" stroke="#174CA3" stroke-opacity="0.5" stroke-miterlimit="10"/>
<path d="M156 239.401V-68.7651" stroke="#174CA3" stroke-opacity="0.5" stroke-miterlimit="10"/>
<path d="M1 85.3184H311" stroke="#174CA3" stroke-opacity="0.5" stroke-miterlimit="10"/>
<path d="M1.50745 94.3631C1.50745 94.3631 24.0754 197.06 156.29 197.06C294.24 197.06 310.469 92.7144 310.469 92.7144" stroke="#174CA3" stroke-opacity="0.5" stroke-miterlimit="10"/>
<path d="M310.469 79.0291C310.469 79.0291 288.196 -26.749 155.996 -26.749C18.046 -26.749 1.50745 80.6778 1.50745 80.6778" stroke="#174CA3" stroke-opacity="0.5" stroke-miterlimit="10"/>
<path d="M265.446 195.022L46.2917 -22.8364" stroke="#174CA3" stroke-opacity="0.5" stroke-miterlimit="10"/>
<path d="M45.9353 194.409L265.136 -23.4805" stroke="#174CA3" stroke-opacity="0.5" stroke-miterlimit="10"/>
<path d="M156.008 151.865C192.647 151.865 222.348 122.339 222.348 85.9174C222.348 49.4955 192.647 19.9697 156.008 19.9697C119.37 19.9697 89.6682 49.4955 89.6682 85.9174C89.6682 122.339 119.37 151.865 156.008 151.865Z" stroke="#174CA3" stroke-opacity="0.5" stroke-miterlimit="10"/>
<path d="M156 151.865C241.604 151.865 311 122.339 311 85.9174C311 49.4955 241.604 19.9697 156 19.9697C70.3959 19.9697 1 49.4955 1 85.9174C1 122.339 70.3959 151.865 156 151.865Z" stroke="#174CA3" stroke-opacity="0.5" stroke-miterlimit="10"/>
<path d="M157.53 240C194.169 240 223.87 171.015 223.87 85.9167C223.87 0.818939 194.169 -68.1665 157.53 -68.1665C120.892 -68.1665 91.1903 0.818939 91.1903 85.9167C91.1903 171.015 120.892 240 157.53 240Z" stroke="#174CA3" stroke-opacity="0.5" stroke-miterlimit="10"/>
<path d="M155.377 238.166C217.551 238.166 267.953 169.181 267.953 84.0832C267.953 -1.01456 217.551 -70 155.377 -70C93.2025 -70 42.8003 -1.01456 42.8003 84.0832C42.8003 169.181 93.2025 238.166 155.377 238.166Z" stroke="#174CA3" stroke-opacity="0.5" stroke-miterlimit="10"/>
</svg>
