<svg width="149" height="263" viewBox="0 0 149 263" fill="none" xmlns="http://www.w3.org/2000/svg">
<path d="M133.731 22.9816C60.4256 22.9816 1.00001 83.5497 1.00002 158.264C1.00003 232.979 60.4256 293.547 133.731 293.547C207.036 293.547 266.462 232.979 266.462 158.264C266.462 83.5497 207.036 22.9816 133.731 22.9816Z" stroke="#174CA3" stroke-opacity="0.5" stroke-miterlimit="10"/>
<path d="M141.362 30.7758C72.2818 30.7758 16.2815 87.8527 16.2815 158.261C16.2816 228.669 72.2818 285.746 141.362 285.746C210.442 285.746 266.442 228.669 266.442 158.261C266.442 87.8527 210.442 30.7758 141.362 30.7758Z" stroke="#174CA3" stroke-opacity="0.5" stroke-miterlimit="10"/>
<path d="M149.477 38.0606C84.8794 38.0606 32.5126 91.4343 32.5126 157.274C32.5126 223.114 84.8795 276.487 149.477 276.487C214.075 276.487 266.442 223.114 266.442 157.274C266.442 91.4342 214.075 38.0606 149.477 38.0606Z" stroke="#174CA3" stroke-opacity="0.5" stroke-miterlimit="10"/>
<path d="M82.8856 78.4888C40.8909 121.291 40.8909 190.687 82.8856 233.489C124.88 276.291 192.967 276.291 234.962 233.489C276.957 190.687 276.957 121.291 234.962 78.4888C192.967 35.6867 124.88 35.6867 82.8856 78.4888Z" stroke="#174CA3" stroke-opacity="0.5" stroke-miterlimit="10"/>
<path d="M168.405 56.0934C114.26 56.0934 70.3674 100.83 70.3674 156.015C70.3674 211.201 114.26 255.938 168.405 255.938C222.549 255.938 266.442 211.201 266.442 156.015C266.442 100.83 222.549 56.0934 168.405 56.0934Z" stroke="#174CA3" stroke-opacity="0.5" stroke-miterlimit="10"/>
<path d="M176.978 67.9205C127.558 67.9205 87.4948 108.366 87.4948 158.258C87.4949 208.15 127.558 248.595 176.978 248.595C226.399 248.595 266.462 208.15 266.462 158.258C266.462 108.366 226.399 67.9205 176.978 67.9205Z" stroke="#174CA3" stroke-opacity="0.5" stroke-miterlimit="10"/>
<path d="M133.039 111.054C107.893 111.054 87.5075 131.637 87.5075 157.028C87.5075 182.419 107.893 203.002 133.039 203.002C158.186 203.002 178.572 182.419 178.572 157.028C178.572 131.637 158.186 111.054 133.039 111.054Z" stroke="#174CA3" stroke-opacity="0.5" stroke-miterlimit="10"/>
<path d="M125.127 119.044C104.345 119.044 87.4979 136.052 87.4979 157.031C87.4979 178.011 104.345 195.018 125.127 195.018C145.909 195.018 162.756 178.011 162.756 157.031C162.756 136.052 145.909 119.044 125.127 119.044Z" stroke="#174CA3" stroke-opacity="0.5" stroke-miterlimit="10"/>
<path d="M117.272 128.21C100.833 128.21 87.5064 141.666 87.5064 158.264C87.5064 174.862 100.833 188.318 117.272 188.318C133.711 188.318 147.038 174.862 147.038 158.264C147.038 141.666 133.711 128.21 117.272 128.21Z" stroke="#174CA3" stroke-opacity="0.5" stroke-miterlimit="10"/>
<path d="M141.168 102.855C111.532 102.855 87.507 127.111 87.507 157.033C87.507 186.955 111.532 211.211 141.168 211.211C170.804 211.211 194.829 186.955 194.829 157.033C194.829 127.111 170.804 102.855 141.168 102.855Z" stroke="#174CA3" stroke-opacity="0.5" stroke-miterlimit="10"/>
<path d="M148.268 95.6782C114.707 95.6782 87.5009 123.147 87.5009 157.031C87.5009 190.916 114.707 218.384 148.268 218.384C181.828 218.384 209.035 190.916 209.035 157.031C209.035 123.147 181.828 95.6782 148.268 95.6782Z" stroke="#174CA3" stroke-opacity="0.5" stroke-miterlimit="10"/>
<path d="M155.463 88.4216C117.926 88.4216 87.4966 119.139 87.4966 157.031C87.4966 194.923 117.926 225.64 155.463 225.64C192.999 225.64 223.428 194.923 223.428 157.031C223.428 119.139 192.999 88.4216 155.463 88.4216Z" stroke="#174CA3" stroke-opacity="0.5" stroke-miterlimit="10"/>
<path d="M163.184 80.6101C121.386 80.6101 87.5015 114.825 87.5015 157.031C87.5015 199.237 121.386 233.451 163.184 233.451C204.983 233.451 238.867 199.237 238.867 157.031C238.867 114.825 204.983 80.6101 163.184 80.6101Z" stroke="#174CA3" stroke-opacity="0.5" stroke-miterlimit="10"/>
<path d="M171.027 73.0004C124.893 73.0004 87.4945 110.761 87.4945 157.341C87.4945 203.92 124.894 241.681 171.027 241.681C217.161 241.681 254.56 203.92 254.56 157.341C254.56 110.761 217.161 73.0004 171.027 73.0004Z" stroke="#174CA3" stroke-opacity="0.5" stroke-miterlimit="10"/>
</svg>
