<svg width="181" height="222" viewBox="0 0 181 222" fill="none" xmlns="http://www.w3.org/2000/svg">
<rect width="181" height="222" fill="#5B5B5B"/>
<g clip-path="url(#clip0_295_265)">
<rect width="1920" height="7243" transform="translate(-1309 -580)" fill="white"/>
<g clip-path="url(#clip1_295_265)">
<rect x="-339" width="520" height="270" rx="20" fill="#F4F8FC"/>
<path d="M193.399 65.6358C193.399 -19.9684 176.167 -89.3643 154.91 -89.3643C133.654 -89.3643 116.422 -19.9684 116.422 65.6358C116.422 151.24 133.654 220.636 154.91 220.636C176.167 220.636 193.399 151.24 193.399 65.6358Z" stroke="#174CA3" stroke-opacity="0.5" stroke-miterlimit="10"/>
<path d="M154.892 65.6358C154.892 -19.9684 137.661 -89.3643 116.404 -89.3643C95.1476 -89.3643 77.9158 -19.9684 77.9158 65.6358C77.9158 151.24 95.1476 220.636 116.404 220.636C137.661 220.636 154.892 151.24 154.892 65.6358Z" stroke="#174CA3" stroke-opacity="0.5" stroke-miterlimit="10"/>
<path d="M116.481 65.6358C116.481 -19.9684 99.2492 -89.3643 77.9927 -89.3643C56.7362 -89.3643 39.5044 -19.9684 39.5044 65.6358C39.5044 151.24 56.7362 220.636 77.9927 220.636C99.2492 220.636 116.481 151.24 116.481 65.6358Z" stroke="#174CA3" stroke-opacity="0.5" stroke-miterlimit="10"/>
<path d="M234.766 65.6358C234.766 -19.9684 217.534 -89.3643 196.277 -89.3643C175.021 -89.3643 157.789 -19.9684 157.789 65.6358C157.789 151.24 175.021 220.636 196.277 220.636C217.534 220.636 234.766 151.24 234.766 65.6358Z" stroke="#174CA3" stroke-opacity="0.5" stroke-miterlimit="10"/>
<path d="M77.9766 65.6358C77.9766 -19.9684 60.7448 -89.3643 39.4883 -89.3643C18.2318 -89.3643 1 -19.9684 1 65.6358C1 151.24 18.2318 220.636 39.4883 220.636C60.7448 220.636 77.9766 151.24 77.9766 65.6358Z" stroke="#174CA3" stroke-opacity="0.5" stroke-miterlimit="10"/>
</g>
</g>
<defs>
<clipPath id="clip0_295_265">
<rect width="1920" height="7243" fill="white" transform="translate(-1309 -580)"/>
</clipPath>
<clipPath id="clip1_295_265">
<rect x="-339" width="520" height="270" rx="20" fill="white"/>
</clipPath>
</defs>
</svg>
