<svg width="130" height="60" viewBox="0 0 130 60" fill="none" xmlns="http://www.w3.org/2000/svg">
<path d="M68.3575 0V22.1776L45.5727 0V22.1776L22.7847 0V22.1776L0 0V60H130L68.3575 0ZM47.993 5.69021L68.3575 25.512V44.3584L47.993 24.5366V5.69021ZM25.2083 5.69021L45.5727 25.512V44.3584L25.2083 24.5366V5.69021ZM2.42029 57.641V5.69021L22.7847 25.512V57.641H2.42029ZM25.2083 57.641V27.8678L45.5727 47.6896V57.641H25.2083ZM47.993 57.641V50.0486L55.7966 57.641H47.993ZM59.2189 57.641L47.993 46.7142V27.8678L68.3575 47.6896V57.641H59.2189ZM70.7811 57.641V50.0486L78.568 57.641H70.7811ZM82.007 57.641L70.7811 46.7142V27.8678L101.366 57.641H82.007ZM104.792 57.641L70.7811 24.5366V5.69021L124.154 57.641H104.792Z" fill="white"/>
</svg>
